<svg xmlns="http://www.w3.org/2000/svg" xmlns:xlink="http://www.w3.org/1999/xlink" version="1.1" x="0px" y="0px" viewBox="0 0 100 125" enable-background="new 0 0 100 100" xml:space="preserve"><g><g><path fill="#ffffff" d="M52.402,56.753c-0.068,0-0.137-0.014-0.201-0.042l-11.076-4.867c-0.179-0.079-0.296-0.254-0.299-0.45    L40.488,29.24c-0.002-0.138,0.053-0.27,0.151-0.366l9.734-9.483c0.094-0.093,0.189-0.157,0.355-0.142    c0.133,0.002,0.259,0.056,0.352,0.151l11.498,11.832c0.138,0.142,0.179,0.351,0.106,0.534l-9.818,24.672    c-0.051,0.126-0.149,0.226-0.275,0.277C52.531,56.741,52.467,56.753,52.402,56.753z M41.821,51.058l10.308,4.529l9.508-23.89    L50.713,20.457l-9.222,8.983L41.821,51.058z"/></g><g><path fill="#ffffff" d="M72.29,56.753c-0.064,0-0.129-0.012-0.189-0.038c-0.126-0.051-0.225-0.151-0.275-0.277l-9.818-24.672    c-0.072-0.183-0.031-0.392,0.106-0.534l11.496-11.832c0.092-0.095,0.219-0.149,0.352-0.151c0.128-0.022,0.262,0.049,0.355,0.142    l9.735,9.483c0.099,0.096,0.153,0.229,0.151,0.366l-0.336,22.154c-0.003,0.195-0.12,0.371-0.299,0.45l-11.077,4.867    C72.427,56.739,72.358,56.753,72.29,56.753z M63.056,31.698l9.508,23.89l10.309-4.529L83.2,29.44l-9.223-8.983L63.056,31.698z"/></g><g><path fill="#ffffff" d="M71.912,56.083H52.78c-0.276,0-0.5-0.224-0.5-0.5s0.224-0.5,0.5-0.5h19.132c0.276,0,0.5,0.224,0.5,0.5    S72.188,56.083,71.912,56.083z"/></g><g><path fill="#ffffff" d="M81.937,80.754c-0.023,0-0.048-0.001-0.072-0.005c-0.181-0.026-0.333-0.149-0.396-0.321l-9.017-24.295    c-0.096-0.259,0.036-0.546,0.295-0.643c0.261-0.097,0.546,0.036,0.643,0.295l8.698,23.437l1.233-1.642l-1.165-25.752    c-0.013-0.276,0.2-0.509,0.477-0.522c0.302-0.024,0.509,0.201,0.521,0.477l1.174,25.931c0.006,0.116-0.029,0.23-0.1,0.323    l-1.892,2.518C82.241,80.682,82.093,80.754,81.937,80.754z"/></g><g><path fill="#ffffff" d="M41.326,80.502c-0.035,0-0.071-0.004-0.106-0.011c-0.23-0.051-0.395-0.255-0.394-0.492l0.166-28.279    c0.002-0.275,0.226-0.497,0.5-0.497c0.001,0,0.002,0,0.003,0c0.276,0.001,0.499,0.227,0.497,0.503L41.84,77.645l9.77-21.68    c0.114-0.252,0.411-0.362,0.661-0.25c0.252,0.114,0.364,0.41,0.251,0.662L41.782,80.208C41.7,80.39,41.52,80.502,41.326,80.502z"/></g><g><path fill="#ffffff" d="M32.557,39.005c-0.131,0-0.261-0.051-0.358-0.152c-0.192-0.198-0.188-0.515,0.01-0.707l8.391-8.141    c0.2-0.192,0.517-0.186,0.707,0.011c0.192,0.198,0.188,0.515-0.01,0.707l-8.391,8.141C32.808,38.958,32.682,39.005,32.557,39.005z    "/></g><g><path fill="#ffffff" d="M41.283,50.963c-0.153,0-0.306-0.071-0.403-0.205L27.382,32.35l-16.283,6.015    c-0.248,0.094-0.531-0.029-0.635-0.277l-1.259-3.02c-0.078-0.188-0.034-0.405,0.11-0.548l7.322-7.238    c0.141-0.139,0.348-0.182,0.533-0.11l10.569,4.11c0.092,0.035,0.174,0.097,0.232,0.181l13.714,18.704    c0.163,0.223,0.115,0.535-0.107,0.699C41.49,50.932,41.386,50.963,41.283,50.963z M10.258,34.995l0.945,2.266l14.949-5.522    l-9.042-3.516L10.258,34.995z"/></g><g><path fill="#ffffff" d="M41.326,57.131c-0.048,0-0.097-0.007-0.146-0.021l-17.078-5.204c-0.174-0.053-0.306-0.196-0.344-0.374    l-3.65-17.076c-0.058-0.27,0.114-0.536,0.385-0.593c0.268-0.058,0.535,0.114,0.594,0.384l3.589,16.788l16.796,5.118    c0.265,0.081,0.413,0.36,0.333,0.624C41.739,56.992,41.541,57.131,41.326,57.131z"/></g><g><path fill="#ffffff" d="M89.997,51.383h-6.462c-0.276,0-0.5-0.224-0.5-0.5s0.224-0.5,0.5-0.5h5.14l-5.43-4.791    c-0.207-0.183-0.227-0.499-0.044-0.706c0.183-0.208,0.498-0.228,0.706-0.044l6.421,5.666c0.155,0.138,0.21,0.357,0.137,0.552    S90.205,51.383,89.997,51.383z"/></g><g><path fill="#ffffff" d="M90.333,67.16c-0.221,0-0.419-0.146-0.48-0.362l-4.49-15.693c-0.076-0.266,0.077-0.542,0.343-0.618    c0.268-0.077,0.543,0.078,0.618,0.343l3.421,11.955l-0.273-11.899c-0.006-0.276,0.213-0.505,0.488-0.512    c0.27,0.008,0.505,0.212,0.512,0.488l0.362,15.787c0.006,0.251-0.176,0.468-0.425,0.506C90.383,67.158,90.357,67.16,90.333,67.16z    "/></g></g></svg>
